<svg width="268" height="8" viewBox="0 0 268 8" fill="none" xmlns="http://www.w3.org/2000/svg">
<path d="M4 0C2.93913 -0.0102634 1.92172 0.402172 1.17157 1.15249C0.421427 1.90246 -1.30385e-08 2.92887 -1.30385e-08 4C-1.30385e-08 5.07113 0.421427 6.09754 1.17157 6.84751C1.92172 7.59783 2.93913 8.01026 4 8C8.36667 7.95833 12.7333 7.91667 17.1 7.875C95.7 7.125 174.3 6.375 252.9 5.625C257.267 5.58333 261.633 5.54167 266 5.5C266.394 5.49619 266.772 5.33481 267.051 5.05357C267.329 4.7722 267.486 4.39401 267.486 4C267.486 3.60599 267.329 3.2278 267.051 2.94643C266.772 2.66519 266.394 2.50381 266 2.5C261.633 2.45833 257.267 2.41667 252.9 2.375C174.3 1.625 95.7 0.875 17.1 0.125C12.7333 0.0833335 8.36667 0.0416665 4 0Z" fill="#EDC8FF"/>
</svg>
